<svg xmlns="http://www.w3.org/2000/svg" version="1.1" xmlns:xlink="http://www.w3.org/1999/xlink" xmlns:svgjs="http://svgjs.com/svgjs" width="1440" height="560" preserveAspectRatio="none" viewBox="0 0 1440 560"><g mask="url(&quot;#SvgjsMask1041&quot;)" fill="none"><path d="M 0,123 C 57.6,132 172.8,185.2 288,168 C 403.2,150.8 460.8,15.8 576,37 C 691.2,58.2 748.8,270.8 864,274 C 979.2,277.2 1036.8,74.4 1152,53 C 1267.2,31.6 1382.4,144.2 1440,167L1440 560L0 560z" fill="rgba(42, 51, 61, 1)"></path><path d="M 0,486 C 48,456 144,339.8 240,336 C 336,332.2 384,451.6 480,467 C 576,482.4 624,397.8 720,413 C 816,428.2 864,547.2 960,543 C 1056,538.8 1104,393.8 1200,392 C 1296,390.2 1392,505.6 1440,534L1440 560L0 560z" fill="rgba(26, 35, 45, 1)"></path></g><defs><mask id="SvgjsMask1041"><rect width="1440" height="560" fill="#ffffff"></rect></mask></defs></svg>