<svg xmlns="http://www.w3.org/2000/svg" version="1.1" xmlns:xlink="http://www.w3.org/1999/xlink" xmlns:svgjs="http://svgjs.com/svgjs" width="1440" height="560" preserveAspectRatio="none" viewBox="0 0 1440 560"><g mask="url(&quot;#SvgjsMask1137&quot;)" fill="none"><path d="M -628.1804335630496,138 C -556.18,186.2 -412.18,361 -268.18043356304963,379 C -124.18,397 -52.18,228.2 91.81956643695037,228 C 235.82,227.8 307.82,391.4 451.81956643695037,378 C 595.82,364.6 667.82,176 811.8195664369504,161 C 955.82,146 1046.18,295.2 1171.8195664369505,303 C 1297.46,310.8 1386.36,220.6 1440,200" stroke="rgba(70, 184, 70, 1)" stroke-width="2"></path><path d="M -137.7381459719977,124 C -65.74,171.2 78.26,335.6 222.2618540280023,360 C 366.26,384.4 438.26,260.8 582.2618540280023,246 C 726.26,231.2 798.26,312.2 942.2618540280023,286 C 1086.26,259.8 1158.26,74.6 1302.2618540280023,115 C 1446.26,155.4 1634.71,491.4 1662.2618540280023,488 C 1689.81,484.6 1484.45,176 1440,98" stroke="rgba(70, 184, 70, 1)" stroke-width="2"></path><path d="M -372.8946142219744,77 C -300.89,157 -156.89,460 -12.894614221974381,477 C 131.11,494 203.11,169.4 347.1053857780256,162 C 491.11,154.6 563.11,436 707.1053857780256,440 C 851.11,444 923.11,210.8 1067.1053857780257,182 C 1211.11,153.2 1352.53,292 1427.1053857780257,296 C 1501.68,300 1437.42,220.8 1440,202" stroke="rgba(70, 184, 70, 1)" stroke-width="2"></path><path d="M -277.34790944553936,361 C -205.35,300 -61.35,47.2 82.65209055446063,56 C 226.65,64.8 298.65,366.2 442.65209055446064,405 C 586.65,443.8 658.65,269.8 802.6520905544606,250 C 946.65,230.2 1018.65,303.6 1162.6520905544605,306 C 1306.65,308.4 1467.18,232.6 1522.6520905544605,262 C 1578.12,291.4 1456.53,414.8 1440,453" stroke="rgba(70, 184, 70, 1)" stroke-width="2"></path><path d="M -457.4467708640585,270 C -385.45,304.6 -241.45,477.6 -97.44677086405852,443 C 46.55,408.4 118.55,114.6 262.5532291359415,97 C 406.55,79.4 478.55,362.2 622.5532291359415,355 C 766.55,347.8 838.55,51.2 982.5532291359415,61 C 1126.55,70.8 1251.06,361.2 1342.5532291359414,404 C 1434.04,446.8 1420.51,300.8 1440,275" stroke="rgba(70, 184, 70, 1)" stroke-width="2"></path></g><defs><mask id="SvgjsMask1137"><rect width="1440" height="560" fill="#ffffff"></rect></mask></defs></svg>