<svg xmlns="http://www.w3.org/2000/svg" version="1.1" xmlns:xlink="http://www.w3.org/1999/xlink" xmlns:svgjs="http://svgjs.com/svgjs" width="1440" height="560" preserveAspectRatio="none" viewBox="0 0 1440 560"><g mask="url(&quot;#SvgjsMask1037&quot;)" fill="none"><path d="M 0,217 C 57.6,175.6 172.8,21.4 288,10 C 403.2,-1.4 460.8,134.6 576,160 C 691.2,185.4 748.8,118.4 864,137 C 979.2,155.6 1036.8,278.4 1152,253 C 1267.2,227.6 1382.4,58.6 1440,10L1440 560L0 560z" fill="rgba(42, 51, 61, 1)"></path><path d="M 0,348 C 48,388 144,548.8 240,548 C 336,547.2 384,342.4 480,344 C 576,345.6 624,541.4 720,556 C 816,570.6 864,433.8 960,417 C 1056,400.2 1104,491.6 1200,472 C 1296,452.4 1392,349.6 1440,319L1440 560L0 560z" fill="rgba(26, 35, 45, 1)"></path></g><defs><mask id="SvgjsMask1037"><rect width="1440" height="560" fill="#ffffff"></rect></mask></defs></svg>